<mxfile host="app.diagrams.net" modified="2023-04-12T21:20:59.931Z" agent="Mozilla/5.0 (Windows NT 10.0; Win64; x64) AppleWebKit/537.36 (KHTML, like Gecko) Chrome/111.0.0.0 Safari/537.36" etag="6OgeJoD-Ip0eq0Cu4k5_" version="21.1.7" type="device">
  <diagram name="Page-1" id="ZJPgJVkqg_GncSlgG73Z">
    <mxGraphModel dx="1444" dy="693" grid="1" gridSize="10" guides="1" tooltips="1" connect="1" arrows="1" fold="1" page="1" pageScale="1" pageWidth="827" pageHeight="1169" math="0" shadow="0">
      <root>
        <mxCell id="0" />
        <mxCell id="1" parent="0" />
        <mxCell id="fErsvCCM8igjgBQ30cQn-2" value="&lt;font style=&quot;font-size: 16px;&quot;&gt;Administrator&lt;/font&gt;" style="html=1;dashed=0;whiteSpace=wrap;fillColor=#ffe6cc;strokeColor=#d79b00;" vertex="1" parent="1">
          <mxGeometry x="414" y="430" width="126" height="60" as="geometry" />
        </mxCell>
        <mxCell id="fErsvCCM8igjgBQ30cQn-3" value="&lt;font style=&quot;font-size: 18px;&quot;&gt;Books&lt;/font&gt;" style="html=1;dashed=0;whiteSpace=wrap;shape=partialRectangle;right=0;left=0;" vertex="1" parent="1">
          <mxGeometry x="600" y="50" width="110" height="40" as="geometry" />
        </mxCell>
        <mxCell id="fErsvCCM8igjgBQ30cQn-4" value="&lt;font style=&quot;font-size: 18px;&quot;&gt;Librarians&lt;/font&gt;" style="html=1;dashed=0;whiteSpace=wrap;shape=partialRectangle;right=0;left=0;" vertex="1" parent="1">
          <mxGeometry x="210" y="70" width="120" height="50" as="geometry" />
        </mxCell>
        <mxCell id="fErsvCCM8igjgBQ30cQn-5" value="&lt;font style=&quot;font-size: 16px;&quot;&gt;Register&lt;br&gt;librarian&lt;/font&gt;" style="shape=ellipse;html=1;dashed=0;whiteSpace=wrap;aspect=fixed;perimeter=ellipsePerimeter;fillColor=#e1d5e7;strokeColor=#9673a6;" vertex="1" parent="1">
          <mxGeometry x="270" y="230" width="70" height="70" as="geometry" />
        </mxCell>
        <mxCell id="fErsvCCM8igjgBQ30cQn-6" value="" style="curved=1;endArrow=classic;html=1;rounded=0;exitX=0;exitY=0;exitDx=0;exitDy=0;entryX=0.5;entryY=1;entryDx=0;entryDy=0;" edge="1" parent="1" source="fErsvCCM8igjgBQ30cQn-7" target="fErsvCCM8igjgBQ30cQn-5">
          <mxGeometry width="50" height="50" relative="1" as="geometry">
            <mxPoint x="490" y="340" as="sourcePoint" />
            <mxPoint x="540" y="290" as="targetPoint" />
            <Array as="points" />
          </mxGeometry>
        </mxCell>
        <mxCell id="fErsvCCM8igjgBQ30cQn-8" value="" style="curved=1;endArrow=none;html=1;rounded=0;exitX=0;exitY=0;exitDx=0;exitDy=0;entryX=0.5;entryY=1;entryDx=0;entryDy=0;endFill=0;" edge="1" parent="1" source="fErsvCCM8igjgBQ30cQn-2" target="fErsvCCM8igjgBQ30cQn-7">
          <mxGeometry width="50" height="50" relative="1" as="geometry">
            <mxPoint x="410" y="400" as="sourcePoint" />
            <mxPoint x="325" y="310" as="targetPoint" />
            <Array as="points">
              <mxPoint x="370" y="420" />
            </Array>
          </mxGeometry>
        </mxCell>
        <mxCell id="fErsvCCM8igjgBQ30cQn-7" value="&lt;font style=&quot;font-size: 13px;&quot;&gt;Submit&lt;br&gt;librarian&lt;br&gt;information&lt;/font&gt;" style="text;html=1;strokeColor=none;fillColor=none;align=center;verticalAlign=middle;whiteSpace=wrap;rounded=0;" vertex="1" parent="1">
          <mxGeometry x="320" y="340" width="60" height="50" as="geometry" />
        </mxCell>
        <mxCell id="fErsvCCM8igjgBQ30cQn-9" value="" style="curved=1;endArrow=classic;html=1;rounded=0;exitX=0.5;exitY=0;exitDx=0;exitDy=0;entryX=0.5;entryY=1;entryDx=0;entryDy=0;" edge="1" parent="1" source="fErsvCCM8igjgBQ30cQn-10" target="fErsvCCM8igjgBQ30cQn-4">
          <mxGeometry width="50" height="50" relative="1" as="geometry">
            <mxPoint x="490" y="310" as="sourcePoint" />
            <mxPoint x="540" y="260" as="targetPoint" />
            <Array as="points" />
          </mxGeometry>
        </mxCell>
        <mxCell id="fErsvCCM8igjgBQ30cQn-11" value="" style="curved=1;endArrow=none;html=1;rounded=0;exitX=0;exitY=0;exitDx=0;exitDy=0;entryX=0.5;entryY=1;entryDx=0;entryDy=0;endFill=0;" edge="1" parent="1" source="fErsvCCM8igjgBQ30cQn-5" target="fErsvCCM8igjgBQ30cQn-10">
          <mxGeometry width="50" height="50" relative="1" as="geometry">
            <mxPoint x="280" y="240" as="sourcePoint" />
            <mxPoint x="270" y="120" as="targetPoint" />
            <Array as="points" />
          </mxGeometry>
        </mxCell>
        <mxCell id="fErsvCCM8igjgBQ30cQn-10" value="&lt;font style=&quot;font-size: 13px;&quot;&gt;New entry to database&lt;/font&gt;" style="text;html=1;strokeColor=none;fillColor=none;align=center;verticalAlign=middle;whiteSpace=wrap;rounded=0;" vertex="1" parent="1">
          <mxGeometry x="235" y="170" width="70" height="30" as="geometry" />
        </mxCell>
        <mxCell id="fErsvCCM8igjgBQ30cQn-12" value="&lt;font style=&quot;font-size: 16px;&quot;&gt;Update&lt;br&gt;information&lt;/font&gt;" style="shape=ellipse;html=1;dashed=0;whiteSpace=wrap;aspect=fixed;perimeter=ellipsePerimeter;fillColor=#e1d5e7;strokeColor=#9673a6;" vertex="1" parent="1">
          <mxGeometry x="450" y="225" width="80" height="80" as="geometry" />
        </mxCell>
        <mxCell id="fErsvCCM8igjgBQ30cQn-13" value="" style="curved=1;endArrow=classic;html=1;rounded=0;exitX=0.5;exitY=0;exitDx=0;exitDy=0;entryX=0.5;entryY=1;entryDx=0;entryDy=0;" edge="1" parent="1" source="fErsvCCM8igjgBQ30cQn-18" target="fErsvCCM8igjgBQ30cQn-12">
          <mxGeometry width="50" height="50" relative="1" as="geometry">
            <mxPoint x="490" y="310" as="sourcePoint" />
            <mxPoint x="480" y="310" as="targetPoint" />
            <Array as="points" />
          </mxGeometry>
        </mxCell>
        <mxCell id="fErsvCCM8igjgBQ30cQn-15" value="" style="curved=1;endArrow=classic;html=1;rounded=0;exitX=0.25;exitY=0;exitDx=0;exitDy=0;entryX=0;entryY=0.25;entryDx=0;entryDy=0;" edge="1" parent="1" source="fErsvCCM8igjgBQ30cQn-16" target="fErsvCCM8igjgBQ30cQn-3">
          <mxGeometry width="50" height="50" relative="1" as="geometry">
            <mxPoint x="490" y="210" as="sourcePoint" />
            <mxPoint x="540" y="160" as="targetPoint" />
            <Array as="points">
              <mxPoint x="500" y="70" />
            </Array>
          </mxGeometry>
        </mxCell>
        <mxCell id="fErsvCCM8igjgBQ30cQn-17" value="" style="curved=1;endArrow=none;html=1;rounded=0;exitX=0.5;exitY=0;exitDx=0;exitDy=0;entryX=0.25;entryY=1;entryDx=0;entryDy=0;endFill=0;" edge="1" parent="1" source="fErsvCCM8igjgBQ30cQn-12" target="fErsvCCM8igjgBQ30cQn-16">
          <mxGeometry width="50" height="50" relative="1" as="geometry">
            <mxPoint x="490" y="225" as="sourcePoint" />
            <mxPoint x="600" y="60" as="targetPoint" />
            <Array as="points">
              <mxPoint x="490" y="200" />
            </Array>
          </mxGeometry>
        </mxCell>
        <mxCell id="fErsvCCM8igjgBQ30cQn-16" value="Update&lt;br&gt;database" style="text;html=1;strokeColor=none;fillColor=none;align=center;verticalAlign=middle;whiteSpace=wrap;rounded=0;" vertex="1" parent="1">
          <mxGeometry x="480" y="120" width="60" height="30" as="geometry" />
        </mxCell>
        <mxCell id="fErsvCCM8igjgBQ30cQn-19" value="" style="curved=1;endArrow=none;html=1;rounded=0;exitX=0.5;exitY=0;exitDx=0;exitDy=0;entryX=0.5;entryY=1;entryDx=0;entryDy=0;endFill=0;" edge="1" parent="1" source="fErsvCCM8igjgBQ30cQn-2" target="fErsvCCM8igjgBQ30cQn-18">
          <mxGeometry width="50" height="50" relative="1" as="geometry">
            <mxPoint x="477" y="430" as="sourcePoint" />
            <mxPoint x="490" y="305" as="targetPoint" />
            <Array as="points" />
          </mxGeometry>
        </mxCell>
        <mxCell id="fErsvCCM8igjgBQ30cQn-18" value="&lt;font style=&quot;font-size: 13px;&quot;&gt;Add updated information&lt;/font&gt;" style="text;html=1;strokeColor=none;fillColor=none;align=center;verticalAlign=middle;whiteSpace=wrap;rounded=0;" vertex="1" parent="1">
          <mxGeometry x="447" y="345" width="60" height="40" as="geometry" />
        </mxCell>
        <mxCell id="fErsvCCM8igjgBQ30cQn-20" value="&lt;font style=&quot;font-size: 16px;&quot;&gt;Delete&lt;br&gt;book&lt;/font&gt;" style="shape=ellipse;html=1;dashed=0;whiteSpace=wrap;aspect=fixed;perimeter=ellipsePerimeter;fillColor=#e1d5e7;strokeColor=#9673a6;" vertex="1" parent="1">
          <mxGeometry x="600" y="232.5" width="65" height="65" as="geometry" />
        </mxCell>
        <mxCell id="fErsvCCM8igjgBQ30cQn-21" value="" style="curved=1;endArrow=classic;html=1;rounded=0;entryX=0.5;entryY=1;entryDx=0;entryDy=0;exitX=0.75;exitY=0;exitDx=0;exitDy=0;" edge="1" parent="1" source="fErsvCCM8igjgBQ30cQn-22" target="fErsvCCM8igjgBQ30cQn-20">
          <mxGeometry width="50" height="50" relative="1" as="geometry">
            <mxPoint x="490" y="320" as="sourcePoint" />
            <mxPoint x="540" y="270" as="targetPoint" />
            <Array as="points" />
          </mxGeometry>
        </mxCell>
        <mxCell id="fErsvCCM8igjgBQ30cQn-23" value="" style="curved=1;endArrow=none;html=1;rounded=0;entryX=0.5;entryY=1;entryDx=0;entryDy=0;exitX=0.75;exitY=0;exitDx=0;exitDy=0;endFill=0;" edge="1" parent="1" source="fErsvCCM8igjgBQ30cQn-2" target="fErsvCCM8igjgBQ30cQn-22">
          <mxGeometry width="50" height="50" relative="1" as="geometry">
            <mxPoint x="509" y="430" as="sourcePoint" />
            <mxPoint x="623" y="300" as="targetPoint" />
            <Array as="points">
              <mxPoint x="590" y="420" />
            </Array>
          </mxGeometry>
        </mxCell>
        <mxCell id="fErsvCCM8igjgBQ30cQn-22" value="&lt;font style=&quot;font-size: 13px;&quot;&gt;Choose the book to delete&lt;/font&gt;" style="text;html=1;strokeColor=none;fillColor=none;align=center;verticalAlign=middle;whiteSpace=wrap;rounded=0;" vertex="1" parent="1">
          <mxGeometry x="580" y="340" width="60" height="45" as="geometry" />
        </mxCell>
        <mxCell id="fErsvCCM8igjgBQ30cQn-26" value="" style="curved=1;endArrow=classic;html=1;rounded=0;exitX=0.5;exitY=0;exitDx=0;exitDy=0;entryX=0.5;entryY=1;entryDx=0;entryDy=0;" edge="1" parent="1" source="fErsvCCM8igjgBQ30cQn-25" target="fErsvCCM8igjgBQ30cQn-3">
          <mxGeometry width="50" height="50" relative="1" as="geometry">
            <mxPoint x="490" y="190" as="sourcePoint" />
            <mxPoint x="540" y="140" as="targetPoint" />
            <Array as="points" />
          </mxGeometry>
        </mxCell>
        <mxCell id="fErsvCCM8igjgBQ30cQn-27" value="" style="curved=1;endArrow=none;html=1;rounded=0;exitX=1;exitY=0;exitDx=0;exitDy=0;entryX=0.5;entryY=1;entryDx=0;entryDy=0;endFill=0;" edge="1" parent="1" source="fErsvCCM8igjgBQ30cQn-20" target="fErsvCCM8igjgBQ30cQn-25">
          <mxGeometry width="50" height="50" relative="1" as="geometry">
            <mxPoint x="655" y="242" as="sourcePoint" />
            <mxPoint x="655" y="90" as="targetPoint" />
            <Array as="points" />
          </mxGeometry>
        </mxCell>
        <mxCell id="fErsvCCM8igjgBQ30cQn-25" value="&lt;font style=&quot;font-size: 13px;&quot;&gt;Delete query sent to database&lt;/font&gt;" style="text;html=1;strokeColor=none;fillColor=none;align=center;verticalAlign=middle;whiteSpace=wrap;rounded=0;" vertex="1" parent="1">
          <mxGeometry x="616.25" y="150" width="77.5" height="40" as="geometry" />
        </mxCell>
        <mxCell id="fErsvCCM8igjgBQ30cQn-28" value="&lt;font style=&quot;font-size: 16px;&quot;&gt;Add book&lt;/font&gt;" style="shape=ellipse;html=1;dashed=0;whiteSpace=wrap;aspect=fixed;perimeter=ellipsePerimeter;fillColor=#e1d5e7;strokeColor=#9673a6;" vertex="1" parent="1">
          <mxGeometry x="730" y="237.5" width="62.5" height="62.5" as="geometry" />
        </mxCell>
        <mxCell id="fErsvCCM8igjgBQ30cQn-29" value="" style="curved=1;endArrow=classic;html=1;rounded=0;exitX=0.75;exitY=0;exitDx=0;exitDy=0;entryX=0.5;entryY=1;entryDx=0;entryDy=0;" edge="1" parent="1" source="fErsvCCM8igjgBQ30cQn-31" target="fErsvCCM8igjgBQ30cQn-28">
          <mxGeometry width="50" height="50" relative="1" as="geometry">
            <mxPoint x="490" y="260" as="sourcePoint" />
            <mxPoint x="540" y="210" as="targetPoint" />
            <Array as="points">
              <mxPoint x="750" y="340" />
            </Array>
          </mxGeometry>
        </mxCell>
        <mxCell id="fErsvCCM8igjgBQ30cQn-32" value="" style="curved=1;endArrow=none;html=1;rounded=0;exitX=1;exitY=0.5;exitDx=0;exitDy=0;entryX=0.25;entryY=1;entryDx=0;entryDy=0;endFill=0;" edge="1" parent="1" source="fErsvCCM8igjgBQ30cQn-2" target="fErsvCCM8igjgBQ30cQn-31">
          <mxGeometry width="50" height="50" relative="1" as="geometry">
            <mxPoint x="540" y="460" as="sourcePoint" />
            <mxPoint x="761" y="300" as="targetPoint" />
            <Array as="points">
              <mxPoint x="630" y="450" />
            </Array>
          </mxGeometry>
        </mxCell>
        <mxCell id="fErsvCCM8igjgBQ30cQn-31" value="&lt;font style=&quot;font-size: 13px;&quot;&gt;Fill book information&lt;/font&gt;" style="text;html=1;strokeColor=none;fillColor=none;align=center;verticalAlign=middle;whiteSpace=wrap;rounded=0;" vertex="1" parent="1">
          <mxGeometry x="670" y="370" width="60" height="30" as="geometry" />
        </mxCell>
        <mxCell id="fErsvCCM8igjgBQ30cQn-33" value="" style="curved=1;endArrow=classic;html=1;rounded=0;exitX=0.5;exitY=0;exitDx=0;exitDy=0;entryX=1;entryY=0.25;entryDx=0;entryDy=0;" edge="1" parent="1" source="fErsvCCM8igjgBQ30cQn-34" target="fErsvCCM8igjgBQ30cQn-3">
          <mxGeometry width="50" height="50" relative="1" as="geometry">
            <mxPoint x="730" y="200" as="sourcePoint" />
            <mxPoint x="780" y="150" as="targetPoint" />
            <Array as="points">
              <mxPoint x="780" y="80" />
            </Array>
          </mxGeometry>
        </mxCell>
        <mxCell id="fErsvCCM8igjgBQ30cQn-35" value="" style="curved=1;endArrow=none;html=1;rounded=0;exitX=1;exitY=0;exitDx=0;exitDy=0;entryX=0.5;entryY=1;entryDx=0;entryDy=0;endFill=0;" edge="1" parent="1" source="fErsvCCM8igjgBQ30cQn-28" target="fErsvCCM8igjgBQ30cQn-34">
          <mxGeometry width="50" height="50" relative="1" as="geometry">
            <mxPoint x="783" y="247" as="sourcePoint" />
            <mxPoint x="710" y="60" as="targetPoint" />
            <Array as="points">
              <mxPoint x="800" y="210" />
            </Array>
          </mxGeometry>
        </mxCell>
        <mxCell id="fErsvCCM8igjgBQ30cQn-34" value="&lt;font style=&quot;font-size: 13px;&quot;&gt;New entry to database&lt;/font&gt;" style="text;html=1;strokeColor=none;fillColor=none;align=center;verticalAlign=middle;whiteSpace=wrap;rounded=0;" vertex="1" parent="1">
          <mxGeometry x="760" y="130" width="76" height="30" as="geometry" />
        </mxCell>
        <mxCell id="fErsvCCM8igjgBQ30cQn-36" value="&lt;font style=&quot;font-size: 16px;&quot;&gt;View&lt;br&gt;statistics&lt;/font&gt;" style="shape=ellipse;html=1;dashed=0;whiteSpace=wrap;aspect=fixed;perimeter=ellipsePerimeter;fillColor=#e1d5e7;strokeColor=#9673a6;" vertex="1" parent="1">
          <mxGeometry x="850" y="237.5" width="70" height="70" as="geometry" />
        </mxCell>
        <mxCell id="fErsvCCM8igjgBQ30cQn-37" value="" style="curved=1;endArrow=none;html=1;rounded=0;exitX=1;exitY=0;exitDx=0;exitDy=0;entryX=0.5;entryY=1;entryDx=0;entryDy=0;startArrow=none;startFill=0;endFill=0;" edge="1" parent="1" source="fErsvCCM8igjgBQ30cQn-41" target="fErsvCCM8igjgBQ30cQn-36">
          <mxGeometry width="50" height="50" relative="1" as="geometry">
            <mxPoint x="710" y="330" as="sourcePoint" />
            <mxPoint x="760" y="280" as="targetPoint" />
            <Array as="points">
              <mxPoint x="880" y="370" />
            </Array>
          </mxGeometry>
        </mxCell>
        <mxCell id="fErsvCCM8igjgBQ30cQn-39" value="" style="curved=1;endArrow=classic;html=1;rounded=0;exitX=0.5;exitY=1;exitDx=0;exitDy=0;entryX=1;entryY=0;entryDx=0;entryDy=0;" edge="1" parent="1" source="fErsvCCM8igjgBQ30cQn-38" target="fErsvCCM8igjgBQ30cQn-36">
          <mxGeometry width="50" height="50" relative="1" as="geometry">
            <mxPoint x="710" y="200" as="sourcePoint" />
            <mxPoint x="760" y="250" as="targetPoint" />
            <Array as="points" />
          </mxGeometry>
        </mxCell>
        <mxCell id="fErsvCCM8igjgBQ30cQn-40" value="" style="curved=1;endArrow=none;html=1;rounded=0;exitX=1;exitY=0;exitDx=0;exitDy=0;entryX=0.5;entryY=0;entryDx=0;entryDy=0;endFill=0;" edge="1" parent="1" source="fErsvCCM8igjgBQ30cQn-3" target="fErsvCCM8igjgBQ30cQn-38">
          <mxGeometry width="50" height="50" relative="1" as="geometry">
            <mxPoint x="710" y="50" as="sourcePoint" />
            <mxPoint x="910" y="248" as="targetPoint" />
            <Array as="points">
              <mxPoint x="880" y="70" />
            </Array>
          </mxGeometry>
        </mxCell>
        <mxCell id="fErsvCCM8igjgBQ30cQn-38" value="&lt;font style=&quot;font-size: 13px;&quot;&gt;Retrieve&lt;br&gt;statistical data&lt;/font&gt;" style="text;html=1;strokeColor=none;fillColor=none;align=center;verticalAlign=middle;whiteSpace=wrap;rounded=0;" vertex="1" parent="1">
          <mxGeometry x="890" y="130" width="60" height="50" as="geometry" />
        </mxCell>
        <mxCell id="fErsvCCM8igjgBQ30cQn-42" value="" style="curved=1;endArrow=none;html=1;rounded=0;exitX=1;exitY=0.75;exitDx=0;exitDy=0;entryX=0;entryY=1;entryDx=0;entryDy=0;startArrow=classic;startFill=1;endFill=0;" edge="1" parent="1" source="fErsvCCM8igjgBQ30cQn-2" target="fErsvCCM8igjgBQ30cQn-41">
          <mxGeometry width="50" height="50" relative="1" as="geometry">
            <mxPoint x="540" y="475" as="sourcePoint" />
            <mxPoint x="885" y="308" as="targetPoint" />
            <Array as="points" />
          </mxGeometry>
        </mxCell>
        <mxCell id="fErsvCCM8igjgBQ30cQn-41" value="&lt;font style=&quot;font-size: 13px;&quot;&gt;Display&lt;br&gt;statistics&lt;/font&gt;" style="text;html=1;strokeColor=none;fillColor=none;align=center;verticalAlign=middle;whiteSpace=wrap;rounded=0;" vertex="1" parent="1">
          <mxGeometry x="792.5" y="385" width="60" height="30" as="geometry" />
        </mxCell>
      </root>
    </mxGraphModel>
  </diagram>
</mxfile>
